<?xml version="1.0" encoding="utf-8"?>
<!-- Generator: Adobe Illustrator 28.0.0, SVG Export Plug-In . SVG Version: 6.00 Build 0)  -->
<svg version="1.1" id="Calque_1" xmlns="http://www.w3.org/2000/svg" xmlns:xlink="http://www.w3.org/1999/xlink" x="0px" y="0px"
	 viewBox="0 0 500 500" style="enable-background:new 0 0 500 500;" xml:space="preserve">
<style type="text/css">
	.st0{display:none;}
	.st1{display:inline;fill:#FFFFFF;}
	.st2{fill:#DBE6F7;}
	.st3{fill:#BBD4F2;}
	.st4{fill:#A4C8F2;}
	.st5{fill:#DD1572;}
	.st6{fill:#2AFC98;}
	.st7{fill:#FDA502;}
	.st8{fill:#003329;}
	.st9{opacity:0.5;}
	.st10{fill:#F8F4E8;}
	.st11{fill:#494F5A;}
	.st12{fill:#12141A;}
	.st13{fill:#242529;}
	.st14{fill:#18285D;}
	.st15{fill:#FFFFFF;}
	.st16{opacity:0.3;fill:#DBE6F7;enable-background:new    ;}
	.st17{fill:#18191B;}
	.st18{fill:#024533;}
	.st19{fill:#FB8500;}
	.st20{font-family:'Montserrat-Black';}
	.st21{font-size:23.828px;}
	.st22{fill:#FDA893;}
	.st23{fill:#DCE1E9;}
	.st24{fill:#FD857D;}
	.st25{fill:#EBD9C5;}
	.st26{fill:#BAA793;}
	.st27{fill:#4F1A1A;}
	.st28{fill:#F05B56;}
	.st29{fill:#713228;}
	.st30{fill:none;stroke:#FFFFFF;stroke-width:1.2;stroke-linecap:round;stroke-miterlimit:10;}
	.st31{fill:#08644B;}
</style>
<g id="BACKGROUND" class="st0">
	<rect class="st1" width="500" height="500"/>
</g>
<g id="OBJECTS">
	<ellipse class="st2" cx="250.7" cy="434.8" rx="221.3" ry="14"/>
	<g>
		<path class="st2" d="M165.2,95.3c0,1-0.4,2-1.1,2.7c-0.7,0.7-1.6,1.1-2.7,1.1H79.9c-2.1,0-3.8-1.7-3.8-3.8c0-1,0.4-2,1.1-2.7
			c0.7-0.7,1.6-1.1,2.7-1.1h3.8c1.5-3.5,5-6,9.1-6c2.8,0,5.2,1.1,7,2.9c2.4-4.1,6.8-6.8,11.9-6.8c1.4,0,2.7,0.2,4,0.6
			c2.7-5,7.9-8.4,13.9-8.4c7.3,0,13.4,4.9,15.2,11.6c1.3-0.7,2.8-1.1,4.4-1.1c4.5,0,8.3,3,9.5,7.2h2.5
			C163.5,91.5,165.2,93.2,165.2,95.3z"/>
		<path class="st2" d="M477.6,145.9c0,1-0.4,2-1.1,2.7c-0.7,0.7-1.6,1.1-2.7,1.1h-81.4c-2.1,0-3.8-1.7-3.8-3.8c0-1,0.4-2,1.1-2.7
			c0.7-0.7,1.6-1.1,2.7-1.1h3.8c1.5-3.5,5-6,9.1-6c2.8,0,5.2,1.1,7,2.9c2.4-4.1,6.8-6.8,11.9-6.8c1.4,0,2.7,0.2,4,0.6
			c2.6-5,7.9-8.4,13.9-8.4c7.3,0,13.4,4.9,15.2,11.6c1.3-0.7,2.8-1.1,4.4-1.1c4.5,0,8.3,3,9.5,7.2h2.5
			C475.9,142.1,477.6,143.8,477.6,145.9z"/>
		<path class="st2" d="M328.1,104.8c0,1-0.4,2-1.1,2.7c-0.7,0.7-1.6,1.1-2.7,1.1h-81.4c-2.1,0-3.8-1.7-3.8-3.8c0-1,0.4-2,1.1-2.7
			c0.7-0.7,1.6-1.1,2.7-1.1h3.9c1.5-3.5,5-6,9.1-6c2.8,0,5.2,1.1,7,2.9c2.4-4.1,6.8-6.8,11.9-6.8c1.4,0,2.7,0.2,4,0.6
			c2.6-5,7.9-8.4,13.9-8.4c7.3,0,13.4,4.9,15.2,11.6c1.3-0.7,2.8-1.1,4.4-1.1c4.5,0,8.3,3,9.5,7.2h2.5
			C326.4,101,328.1,102.8,328.1,104.8z"/>
	</g>
	<g>
		<g>
			<path class="st3" d="M67.3,194.6c3.3,11.1,14.4,10.8,14.2,19.8c-0.2,9,5.4,15.9,13.2,14.2c7.8-1.7,13.4-3.3,17,5.7
				c3.6,9,14.9,13.4,19.4,6.4c1.1-1.8,2.3-3.7,3.5-5.5c0.3-0.5,0.6-1,1-1.5c0.1-0.1,0.1-0.2,0.2-0.3c4.7-7.5,3.2-17.5-3.8-23
				c-2.8-2.2-6.2-3.5-10.1-2.4c-12,3.5-7.7-8.6-14.9-13.7c-8.3-5.9-15.3,0.8-21-4.2C78.1,182.9,64,183.5,67.3,194.6z"/>
			<g>
				<path class="st4" d="M81.7,199.4l52.8,35.7c0.3-0.5,0.6-1,1-1.5l-52.8-35.6c-0.4-0.3-1-0.2-1.2,0.2
					C81.2,198.5,81.3,199.1,81.7,199.4z"/>
			</g>
		</g>
		<path class="st2" d="M328.8,141.1c12.4-5.2,23.3-12.4,17.3-16.7c-6-4.3-24.4,8.4-32.9,23.4l-4.1,4.4c6.4-10.8,8.3-26.5,2.7-29.5
			c-5.5-3-5.8,7.6-4.5,17.2c1,7.4,0,12.4-0.8,14.9L287,175.8c10.1-17.2,13-41.9,4.3-46.6c-8.7-4.7-9.2,12-7.1,27.4
			c1.6,11.6,0,19.6-1.2,23.6l-3.9,4.2c0.6,0.8,1.2,1.6,1.9,2.3l23.1-24.8c2.8-0.7,6.8-1.3,12-0.9c9.7,0.7,20.2-0.4,16.9-5.7
			c-2.9-4.6-14.8-3-24.7,2.1l8-8.6C319.2,146.5,323.4,143.3,328.8,141.1z"/>
		<g>
			<path class="st2" d="M81.3,149.8c-1.3,10.7,8.3,14.6,4.8,22.2c-3.6,7.6-1.2,15.6,6,17.1c7.3,1.5,12.7,2.2,12.4,11.2
				c-0.3,9,7.7,17,14.2,12.7c1.6-1.1,3.4-2.3,5.1-3.4c0.5-0.3,0.9-0.6,1.4-0.9c0.1-0.1,0.2-0.1,0.3-0.2c6.9-4.7,9.2-13.8,5.3-21.1
				c-1.6-3-4-5.3-7.7-5.8c-11.6-1.4-3.4-10.2-7.6-17.2c-4.9-8.1-13.4-5-16.4-11.4C94.9,143.7,82.6,139,81.3,149.8z"/>
			<g>
				<path class="st3" d="M91.8,159.2l32,50.2c0.5-0.3,0.9-0.6,1.4-0.9l-32-50.1c-0.2-0.4-0.8-0.5-1.2-0.3
					C91.7,158.3,91.6,158.8,91.8,159.2z"/>
			</g>
		</g>
		<g>
			<path class="st3" d="M339.2,366.3c-3.4,11.4-14.7,11-14.5,20.3c0.2,9.2-5.6,16.2-13.5,14.5c-8-1.7-13.8-3.4-17.4,5.8
				c-3.6,9.2-15.2,13.8-19.8,6.5c-1.1-1.8-2.4-3.8-3.6-5.7c-0.3-0.5-0.7-1-1-1.6c-0.1-0.1-0.2-0.2-0.2-0.4
				c-4.9-7.7-3.3-17.9,3.9-23.6c2.9-2.3,6.4-3.6,10.3-2.4c12.3,3.6,7.9-8.8,15.2-14c8.5-6,15.7,0.8,21.5-4.4
				C328.2,354.3,342.6,354.9,339.2,366.3z"/>
			<g>
				<path class="st4" d="M324.5,371.2l-54.1,36.5c-0.3-0.5-0.7-1-1-1.6l54.1-36.5c0.4-0.3,1-0.2,1.3,0.2
					C325.1,370.4,324.9,370.9,324.5,371.2z"/>
			</g>
		</g>
		<g>
			<path class="st2" d="M319.6,324.3c1.3,11-8.5,14.9-4.9,22.7c3.6,7.8,1.3,16-6.2,17.5c-7.5,1.5-13,2.2-12.7,11.4
				c0.3,9.2-7.9,17.5-14.6,13c-1.7-1.1-3.4-2.3-5.2-3.5c-0.5-0.3-1-0.7-1.4-1c-0.1-0.1-0.2-0.1-0.3-0.2c-7-4.8-9.5-14.2-5.4-21.7
				c1.6-3,4.1-5.4,7.9-5.9c11.9-1.5,3.5-10.4,7.8-17.7c5-8.3,13.8-5.2,16.8-11.7C305.7,318.1,318.3,313.3,319.6,324.3z"/>
			<g>
				<g>
					<path class="st3" d="M308.8,334l-32.8,51.4c-0.5-0.3-1-0.7-1.4-1l32.7-51.4c0.3-0.4,0.8-0.5,1.2-0.3
						C309,333,309.1,333.6,308.8,334z"/>
				</g>
			</g>
		</g>
	</g>
	<g>
		<g>
			<g>
				<g>
					<g>
						<path class="st5" d="M470,293.8c3,0,5.5,2.5,5.5,5.5s-2.5,5.5-5.5,5.5s-5.5-2.5-5.5-5.5C464.5,296.2,467,293.8,470,293.8z
							 M470,295.5c-2.1,0-3.8,1.7-3.8,3.8s1.7,3.8,3.8,3.8c2.1,0,3.8-1.7,3.8-3.8C473.7,297.2,472.1,295.5,470,295.5z"/>
					</g>
					<g>
						<path class="st6" d="M464.4,266c3,0,5.5,2.5,5.5,5.5s-2.5,5.5-5.5,5.5s-5.5-2.5-5.5-5.5C459,268.4,461.4,266,464.4,266z
							 M464.4,267.7c-2.1,0-3.8,1.7-3.8,3.8s1.7,3.8,3.8,3.8c2.1,0,3.8-1.7,3.8-3.8C468.2,269.4,466.5,267.7,464.4,267.7z"/>
					</g>
					<g>
						<g>
							<g>
								<path class="st5" d="M447.8,258.3c0,0.5,0.4,0.9,0.9,0.9h3.8c0.5,0,0.9-0.4,0.9-0.9s-0.4-0.9-0.9-0.9h-3.8
									C448.2,257.4,447.8,257.8,447.8,258.3z"/>
							</g>
							<g>
								<path class="st5" d="M441.2,258.3c0,0.5,0.4,0.9,0.9,0.9h3.8c0.5,0,0.9-0.4,0.9-0.9s-0.4-0.9-0.9-0.9H442
									C441.6,257.4,441.2,257.8,441.2,258.3z"/>
							</g>
						</g>
						<g>
							<g>
								<path class="st5" d="M446.4,253v3.4c0,0.5,0.4,0.9,0.9,0.9s0.9-0.4,0.9-0.9V253c0-0.5-0.4-0.9-0.9-0.9
									C446.8,252.1,446.4,252.5,446.4,253z"/>
							</g>
							<g>
								<path class="st5" d="M446.4,260.2v3.4c0,0.5,0.4,0.9,0.9,0.9s0.9-0.4,0.9-0.9v-3.4c0-0.5-0.4-0.9-0.9-0.9
									C446.8,259.3,446.4,259.7,446.4,260.2z"/>
							</g>
						</g>
					</g>
					<g>
						<g>
							<g>
								<g>
									<path class="st6" d="M454,287.5c0,0.5,0.4,0.9,0.9,0.9h3.8c0.5,0,0.9-0.4,0.9-0.9c0-0.5-0.4-0.9-0.9-0.9h-3.8
										C454.4,286.6,454,287,454,287.5z"/>
								</g>
								<g>
									<path class="st6" d="M447.4,287.5c0,0.5,0.4,0.9,0.9,0.9h3.8c0.5,0,0.9-0.4,0.9-0.9c0-0.5-0.4-0.9-0.9-0.9h-3.8
										C447.7,286.6,447.4,287,447.4,287.5z"/>
								</g>
							</g>
							<g>
								<g>
									<path class="st6" d="M452.6,282.2v3.4c0,0.5,0.4,0.9,0.9,0.9c0.5,0,0.9-0.4,0.9-0.9v-3.4c0-0.5-0.4-0.9-0.9-0.9
										S452.6,281.7,452.6,282.2z"/>
								</g>
								<g>
									<path class="st6" d="M452.6,289.4v3.4c0,0.5,0.4,0.9,0.9,0.9c0.5,0,0.9-0.4,0.9-0.9v-3.4c0-0.5-0.4-0.9-0.9-0.9
										S452.6,288.9,452.6,289.4z"/>
								</g>
							</g>
						</g>
					</g>
				</g>
			</g>
		</g>
		<g>
			<g>
				<g>
					<g>
						<path class="st7" d="M55.6,161.5c0,3-2.5,5.5-5.5,5.5s-5.5-2.5-5.5-5.5s2.5-5.5,5.5-5.5C53.2,156,55.6,158.5,55.6,161.5z
							 M46.4,161.5c0,2.1,1.7,3.8,3.8,3.8c2.1,0,3.8-1.7,3.8-3.8c0-2.1-1.7-3.8-3.8-3.8C48.1,157.7,46.4,159.4,46.4,161.5z"/>
					</g>
					<g>
						<g>
							<path class="st8" d="M61.2,133.7c0,3-2.5,5.5-5.5,5.5s-5.5-2.5-5.5-5.5s2.5-5.5,5.5-5.5S61.2,130.7,61.2,133.7z M52,133.7
								c0,2.1,1.7,3.8,3.8,3.8c2.1,0,3.8-1.7,3.8-3.8s-1.7-3.8-3.8-3.8C53.6,130,52,131.6,52,133.7z"/>
						</g>
					</g>
					<g>
						<g>
							<g>
								<path class="st7" d="M72.3,120.6c0,0.5-0.4,0.9-0.9,0.9h-3.8c-0.5,0-0.9-0.4-0.9-0.9c0-0.5,0.4-0.9,0.9-0.9h3.8
									C72,119.7,72.3,120.1,72.3,120.6z"/>
							</g>
							<g>
								<path class="st7" d="M79,120.6c0,0.5-0.4,0.9-0.9,0.9h-3.8c-0.5,0-0.9-0.4-0.9-0.9c0-0.5,0.4-0.9,0.9-0.9h3.8
									C78.6,119.7,79,120.1,79,120.6z"/>
							</g>
						</g>
						<g>
							<g>
								<path class="st7" d="M73.8,115.2v3.4c0,0.5-0.4,0.9-0.9,0.9c-0.5,0-0.9-0.4-0.9-0.9v-3.4c0-0.5,0.4-0.9,0.9-0.9
									C73.4,114.4,73.8,114.8,73.8,115.2z"/>
							</g>
							<g>
								<path class="st7" d="M73.8,122.5v3.4c0,0.5-0.4,0.9-0.9,0.9c-0.5,0-0.9-0.4-0.9-0.9v-3.4c0-0.5,0.4-0.9,0.9-0.9
									S73.8,122,73.8,122.5z"/>
							</g>
						</g>
					</g>
					<g>
						<g>
							<g>
								<g>
									<path class="st8" d="M66.2,149.7c0,0.5-0.4,0.9-0.9,0.9h-3.8c-0.5,0-0.9-0.4-0.9-0.9c0-0.5,0.4-0.9,0.9-0.9h3.8
										C65.8,148.9,66.2,149.3,66.2,149.7z"/>
								</g>
								<g>
									<path class="st8" d="M72.8,149.7c0,0.5-0.4,0.9-0.9,0.9h-3.8c-0.5,0-0.9-0.4-0.9-0.9c0-0.5,0.4-0.9,0.9-0.9h3.8
										C72.4,148.9,72.8,149.3,72.8,149.7z"/>
								</g>
							</g>
							<g>
								<g>
									<path class="st8" d="M67.6,144.4v3.4c0,0.5-0.4,0.9-0.9,0.9c-0.5,0-0.9-0.4-0.9-0.9v-3.4c0-0.5,0.4-0.9,0.9-0.9
										S67.6,144,67.6,144.4z"/>
								</g>
								<g>
									<path class="st8" d="M67.6,151.7v3.4c0,0.5-0.4,0.9-0.9,0.9c-0.5,0-0.9-0.4-0.9-0.9v-3.4c0-0.5,0.4-0.9,0.9-0.9
										C67.2,150.8,67.6,151.2,67.6,151.7z"/>
								</g>
							</g>
						</g>
					</g>
				</g>
			</g>
		</g>
		<g>
			<g>
				<path class="st7" d="M390.2,163.2V177c0,1.8,1.5,3.3,3.3,3.3h25.1l7.6,2.7c0.8,0.3,1.5-0.5,1.2-1.3l-2.9-7.4v-11.2
					c0-1.8-1.5-3.3-3.3-3.3h-27.7C391.7,159.9,390.2,161.4,390.2,163.2z"/>
			</g>
			<g class="st9">
				<g>
					<path class="st10" d="M411.9,170.5c0,1.3,1.1,2.4,2.4,2.4s2.4-1.1,2.4-2.4s-1.1-2.4-2.4-2.4C413,168.1,411.9,169.2,411.9,170.5
						z"/>
					<path class="st10" d="M404.4,170.5c0,1.3,1.1,2.4,2.4,2.4s2.4-1.1,2.4-2.4s-1.1-2.4-2.4-2.4
						C405.5,168.1,404.4,169.2,404.4,170.5z"/>
					<path class="st10" d="M396.8,170.5c0,1.3,1.1,2.4,2.4,2.4s2.4-1.1,2.4-2.4s-1.1-2.4-2.4-2.4S396.8,169.2,396.8,170.5z"/>
				</g>
			</g>
		</g>
	</g>
	<g>
		<g>
			<g>
				<g>
					<g>
						<g>
							<g>
								<path class="st11" d="M120.4,160.9v257.9c0,8.1,6.6,14.6,14.6,14.6h128.4c4.1,0,7.7-1.7,10.4-4.3c2.6-2.6,4.2-6.3,4.2-10.3
									V160.9c0-8.1-6.6-14.6-14.6-14.6H135c-2.4,0-4.6,0.6-6.6,1.6C123.6,150.3,120.4,155.2,120.4,160.9z"/>
							</g>
						</g>
						<g>
							<g>
								<path class="st12" d="M125.8,160.9v257.9c0,8.1,6.6,14.6,14.6,14.6h128.4c4.1,0,7.7-1.7,10.4-4.3c2.6-2.6,4.2-6.3,4.2-10.3
									V160.9c0-8.1-6.6-14.6-14.6-14.6H140.5c-2.4,0-4.6,0.6-6.6,1.6C129.1,150.3,125.8,155.2,125.8,160.9z"/>
							</g>
						</g>
						<g>
							<g>
								<path class="st13" d="M123.1,209.7h-1.7c-2.1,0-3.8-1.7-3.8-3.8v-15.7c0-2.1,1.7-3.8,3.8-3.8h1.7V209.7z"/>
							</g>
						</g>
						<g>
							<g>
								<path class="st13" d="M123.1,240.1h-1.7c-2.1,0-3.8-1.7-3.8-3.8v-15.7c0-2.1,1.7-3.8,3.8-3.8h1.7V240.1z"/>
							</g>
						</g>
						<g>
							<g>
								<path class="st14" d="M283.5,209.7h1.3c1.6,0,3-1.3,3-3v-17.4c0-1.6-1.3-3-3-3h-1.3V209.7z"/>
							</g>
						</g>
						<g>
							<g>
								<path class="st15" d="M276.2,160v259.7c0,0.9-0.2,1.7-0.5,2.5c-1,2.3-3.3,3.9-5.9,3.9H139.6c-3.6,0-6.4-2.9-6.4-6.4V160
									c0-0.4,0-0.7,0.1-1.1c0.4-2.2,1.8-4,3.8-4.9c0.4-0.2,0.8-0.3,1.3-0.4c0.4-0.1,0.8-0.1,1.2-0.1h130.2
									C273.3,153.6,276.2,156.4,276.2,160z"/>
							</g>
						</g>
						<path class="st2" d="M276.2,160v13.3H133.1V160c0-0.4,0-0.7,0.1-1.1c0.4-2.2,1.8-4,3.8-4.9c0.4-0.2,0.8-0.3,1.3-0.4
							c0.4-0.1,0.8-0.1,1.2-0.1h130.2C273.3,153.6,276.2,156.4,276.2,160z"/>
						<g>
							<g>
								<path class="st12" d="M253.6,153.5l-6.6,10.1c-1.9,2.8-5,4.5-8.4,4.5h-64.2c-3.4,0-6.5-1.7-8.4-4.5l-6.6-10.1
									c0-1,0.9-1.9,1.9-1.9h90.4C252.8,151.6,253.6,152.5,253.6,153.5z"/>
							</g>
							<path class="st16" d="M229.3,160.8h-55.7c-0.9,0-1.7-0.8-1.7-1.7v-0.7c0-0.9,0.8-1.7,1.7-1.7h55.7c0.9,0,1.7,0.8,1.7,1.7v0.7
								C231,160.1,230.2,160.8,229.3,160.8z"/>
							<path class="st16" d="M241.8,158.7c0,1.3-1.1,2.4-2.4,2.4s-2.4-1.1-2.4-2.4c0-1.3,1.1-2.4,2.4-2.4S241.8,157.3,241.8,158.7z"
								/>
						</g>
					</g>
				</g>
			</g>
			<g>
				<g>
					<g>
						<path class="st2" d="M145.4,333.3L145.4,333.3c0,1.2,1,2.2,2.2,2.2H199c1.2,0,2.2-1,2.2-2.2l0,0c0-1.2-1-2.2-2.2-2.2h-51.5
							C146.3,331.1,145.4,332.1,145.4,333.3z"/>
						<path class="st2" d="M210.7,333.3L210.7,333.3c0,1.2,1,2.2,2.2,2.2h51.5c1.2,0,2.2-1,2.2-2.2l0,0c0-1.2-1-2.2-2.2-2.2h-51.5
							C211.6,331.1,210.7,332.1,210.7,333.3z"/>
					</g>
					<g>
						<path class="st2" d="M145.4,345.3L145.4,345.3c0,1.2,1,2.2,2.2,2.2H199c1.2,0,2.2-1,2.2-2.2l0,0c0-1.2-1-2.2-2.2-2.2h-51.5
							C146.3,343.1,145.4,344.1,145.4,345.3z"/>
						<path class="st2" d="M210.7,345.3L210.7,345.3c0,1.2,1,2.2,2.2,2.2h51.5c1.2,0,2.2-1,2.2-2.2l0,0c0-1.2-1-2.2-2.2-2.2h-51.5
							C211.6,343.1,210.7,344.1,210.7,345.3z"/>
					</g>
					<g>
						<path class="st2" d="M145.4,357.3L145.4,357.3c0,1.2,1,2.2,2.2,2.2H199c1.2,0,2.2-1,2.2-2.2l0,0c0-1.2-1-2.2-2.2-2.2h-51.5
							C146.3,355.1,145.4,356.1,145.4,357.3z"/>
						<path class="st2" d="M210.7,357.3L210.7,357.3c0,1.2,1,2.2,2.2,2.2h51.5c1.2,0,2.2-1,2.2-2.2l0,0c0-1.2-1-2.2-2.2-2.2h-51.5
							C211.6,355.1,210.7,356.1,210.7,357.3z"/>
					</g>
					<g>
						<path class="st2" d="M145.4,369.3L145.4,369.3c0,1.2,1,2.2,2.2,2.2H199c1.2,0,2.2-1,2.2-2.2l0,0c0-1.2-1-2.2-2.2-2.2h-51.5
							C146.3,367.1,145.4,368.1,145.4,369.3z"/>
						<path class="st2" d="M210.7,369.3L210.7,369.3c0,1.2,1,2.2,2.2,2.2h51.5c1.2,0,2.2-1,2.2-2.2l0,0c0-1.2-1-2.2-2.2-2.2h-51.5
							C211.6,367.1,210.7,368.1,210.7,369.3z"/>
					</g>
				</g>
			</g>
			<g>
				<path class="st2" d="M178.3,397.3H149c-2,0-3.7-1.6-3.7-3.7V390c0-2,1.6-3.7,3.7-3.7h29.3c2,0,3.7,1.6,3.7,3.7v3.6
					C182,395.6,180.3,397.3,178.3,397.3z"/>
				<path class="st2" d="M220.9,397.3h-29.3c-2,0-3.7-1.6-3.7-3.7V390c0-2,1.6-3.7,3.7-3.7h29.3c2,0,3.7,1.6,3.7,3.7v3.6
					C224.5,395.6,222.9,397.3,220.9,397.3z"/>
				<path class="st2" d="M262.8,397.3h-29.3c-2,0-3.7-1.6-3.7-3.7V390c0-2,1.6-3.7,3.7-3.7h29.3c2,0,3.7,1.6,3.7,3.7v3.6
					C266.4,395.6,264.8,397.3,262.8,397.3z"/>
			</g>
		</g>
		<g>
			<polygon class="st2" points="276.2,212 276.2,310.1 153.1,310.1 153.1,212 158.7,212 158.7,212 158.7,212 			"/>
			<g>
				<g>
					<rect x="159.9" y="204.5" class="st17" width="142" height="98.1"/>
					<rect x="165.6" y="204.5" class="st8" width="142" height="98.1"/>
					<path class="st6" d="M165.5,204.4l65.7,68.4c2.9,3,7.7,3,10.6,0l65.7-68.4l-66.1,58.9c-2.8,2.5-7,2.5-9.7,0L165.5,204.4z"/>
					<g>
						<polygon class="st6" points="222.9,255.2 169.7,302.5 165.6,302.5 165.6,300 219.9,251.8 						"/>
					</g>
					<g>
						<polygon class="st6" points="307.6,300.3 307.6,302.5 303.1,302.5 249.9,255.2 253,251.8 						"/>
					</g>
					<path class="st18" d="M165.6,204.5l66.3,59c2.7,2.4,6.7,2.4,9.4,0l66.3-59L165.6,204.5L165.6,204.5z"/>
					<g class="st9">
						<path class="st6" d="M234.9,213.6h-49.1c-1.6,0-3-1.3-3-3c0-1.6,1.3-3,3-3h49.1c1.6,0,3,1.3,3,3S236.5,213.6,234.9,213.6z"/>
					</g>
					<g class="st9">
						<path class="st6" d="M249.9,213.6h-5c-1.6,0-3-1.3-3-3c0-1.6,1.3-3,3-3h5c1.6,0,3,1.3,3,3S251.5,213.6,249.9,213.6z"/>
					</g>
				</g>
			</g>
		</g>
		<g>
			<g>
				<g>
					<path class="st19" d="M285.3,212.7h-15c-4,0-7.2-3.2-7.2-7.2v-15c0-4,3.2-7.2,7.2-7.2h15c4,0,7.2,3.2,7.2,7.2v15
						C292.5,209.5,289.3,212.7,285.3,212.7z"/>
				</g>
			</g>
			<g>
				<g>
					<path class="st7" d="M287.9,212.7h-15c-4,0-7.2-3.2-7.2-7.2v-15c0-4,3.2-7.2,7.2-7.2h15c4,0,7.2,3.2,7.2,7.2v15
						C295.1,209.5,291.9,212.7,287.9,212.7z"/>
				</g>
			</g>
			<g>
				<text transform="matrix(1 0 0 1 276.665 206.9802)" class="st15 st20 st21">!</text>
			</g>
		</g>
	</g>
	<g>
		<g>
			<g>
				<polygon class="st22" points="335.3,416.8 334.7,426.9 342.9,427.1 343.9,416.5 				"/>
				<g>
					<path class="st15" d="M338,425.5c0,0,4.2-1,5.4-0.9c1.2,0.1,8.6,9,11.1,9.6c4.7,1.1,4.4,8.5,1.5,8.7
						c-8.3,0.7-22.4-3.3-22.4-3.3s-1-9.5-0.3-12.5C334,424.2,335.6,426.3,338,425.5z"/>
					<g>
						<g>
							<path class="st23" d="M344.5,433.8c-0.1,0-0.3,0-0.4-0.1c-0.3-0.2-0.3-0.5-0.1-0.8c0.1-0.1,1.6-2.1,3.3-2.8
								c2.4-0.9,4,0.6,4,0.6c0.2,0.2,0.2,0.6,0,0.8c-0.2,0.2-0.6,0.2-0.8,0c0,0-1.2-1-2.8-0.4c-1.4,0.5-2.8,2.4-2.8,2.4
								C344.8,433.7,344.7,433.8,344.5,433.8z"/>
						</g>
						<g>
							<path class="st23" d="M343,432c-0.1,0-0.3,0-0.4-0.1c-0.3-0.2-0.3-0.5-0.1-0.8c0.1-0.1,1.6-2.1,3.3-2.8c2.4-0.9,4,0.6,4,0.6
								c0.2,0.2,0.2,0.6,0,0.8c-0.2,0.2-0.6,0.2-0.8,0c0,0-1.2-1-2.8-0.4c-1.5,0.5-2.8,2.4-2.8,2.4C343.3,431.9,343.1,432,343,432z"
								/>
						</g>
						<g>
							<path class="st23" d="M346.7,435.4c-0.1,0-0.3,0-0.4-0.1c-0.3-0.2-0.3-0.5-0.1-0.8c0.1-0.1,1.6-2.1,3.3-2.8
								c2.4-0.9,4,0.6,4,0.6c0.2,0.2,0.2,0.6,0,0.8c-0.2,0.2-0.6,0.2-0.8,0c0,0-1.2-1-2.8-0.4c-1.5,0.5-2.8,2.4-2.8,2.4
								C347,435.3,346.8,435.4,346.7,435.4z"/>
						</g>
					</g>
				</g>
			</g>
			<g>
				<g>
					<path class="st13" d="M365.4,293.8c0,0-0.2,2.4-0.5,6.3c-0.1,1-0.2,2.2-0.3,3.4c-1.1,13.2-3.1,37-5.4,54
						c-3.1,23.7-13,62.7-13,62.7l-10.2-0.4l-1,0l-2.4-0.1c0,0,1.7-24.7,3.9-46.1c1.4-14.1,2.3-47.5,2.7-68.6
						c0.2-10.9,0.3-18.5,0.3-18.5L365.4,293.8z"/>
				</g>
			</g>
			<g>
				<path class="st12" d="M365.4,293.8c0,0-0.2,2.4-0.5,6.3c-0.1,1-0.2,2.2-0.3,3.4c-4.7,0.9-17.7,1.5-25.5,1.5
					c0.2-10.9,0.3-18.5,0.3-18.5L365.4,293.8z"/>
			</g>
			<g>
				<g>
					<path class="st12" d="M345,300c0,0.8-1,77.7-8.9,119.9l-1,0c8-42.1,8.9-119.1,9-119.9L345,300z"/>
				</g>
			</g>
		</g>
		<g>
			<g>
				<polygon class="st22" points="399.3,418.8 399,427.9 390.6,427.4 390.5,417.8 				"/>
				<g>
					<g>
						<g>
							<path class="st15" d="M396.8,427.4c0,0,1.8-2.4,3.2-2.2c1.4,0.1,12.2,8.9,15.9,9.7c3.7,0.8,3,3.5,2.3,4.9s-29.8-1-29.8-1
								s-0.7-8.7,0.3-11.3C389.8,424.9,393.9,428,396.8,427.4z"/>
							<g>
								<g>
									<path class="st23" d="M402.8,433.6c-0.1,0-0.3,0-0.4-0.1c-0.2-0.1-0.3-0.5-0.2-0.7c0-0.1,1.2-2,2.8-2.8
										c2.1-1,3.6,0.2,3.7,0.2c0.2,0.2,0.3,0.5,0.1,0.7c-0.2,0.2-0.5,0.3-0.7,0.1c0,0-1.1-0.8-2.6-0.1c-1.3,0.6-2.3,2.4-2.3,2.4
										C403,433.5,402.9,433.5,402.8,433.6z"/>
								</g>
								<g>
									<path class="st23" d="M401.2,432.1c-0.1,0-0.3,0-0.4-0.1c-0.2-0.1-0.3-0.5-0.2-0.7c0-0.1,1.2-2,2.8-2.8
										c2.1-1,3.6,0.2,3.7,0.2c0.2,0.2,0.3,0.5,0.1,0.7c-0.2,0.2-0.5,0.3-0.7,0.1c0,0-1.1-0.8-2.6-0.1c-1.3,0.6-2.3,2.4-2.3,2.4
										C401.5,432,401.4,432,401.2,432.1z"/>
								</g>
								<g>
									<path class="st23" d="M404.9,434.8c-0.1,0-0.3,0-0.4-0.1c-0.2-0.1-0.3-0.5-0.2-0.7c0-0.1,1.2-2,2.8-2.8
										c2.1-1,3.6,0.2,3.7,0.2c0.2,0.2,0.3,0.5,0.1,0.7c-0.2,0.2-0.5,0.3-0.7,0.1c0,0-1.1-0.8-2.6-0.1c-1.3,0.6-2.3,2.4-2.3,2.4
										C405.1,434.7,405,434.8,404.9,434.8z"/>
								</g>
							</g>
						</g>
					</g>
				</g>
			</g>
			<g>
				<path class="st13" d="M400.8,421.1l-8.5-0.6l-1-0.1l-2.1-0.2c0,0-5.2-49.5-6.8-62.6c-1.4-11.4-8-37.2-12.2-53.2
					c-1.2-4.5-2.2-8.3-2.9-10.7c-0.5-1.9-0.8-3-0.8-3l28.3-2.7c0,0,0.1,0.6,0.2,1.7c0.3,2.3,0.8,6.7,1.4,12.2
					c1.8,15,4.5,38.3,5.5,50.2C404.6,382.8,400.8,421.1,400.8,421.1z"/>
			</g>
			<g>
				<path class="st12" d="M396.5,301.9l-26.2,2.5c-1.2-4.5-2.2-8.3-2.9-10.7l27.7-4C395.3,292.1,395.8,296.4,396.5,301.9z"/>
			</g>
			<g>
				<g>
					<path class="st12" d="M392.4,420.5l-1-0.1c-0.5-15.3-2-53.5-5.1-69.7c-3.9-20.4-12.7-50.1-12.8-50.4l1-0.3
						c0.1,0.3,9,30.1,12.8,50.5C390.4,366.9,391.9,405.2,392.4,420.5z"/>
				</g>
			</g>
		</g>
		<g>
			<path class="st22" d="M396.2,218.3c0.4,3.9,0.9,7.6,1.3,10.7c0.7,5,1.2,8.4,1.2,8.4l4.1,13.1c1.4,4.5,6.4,6.6,10.6,4.5
				c0.1,0,0.1-0.1,0.2-0.1c7.2-3.7,2.7-18,2.7-18l-1.4-0.1c-0.6-1.6-2.3-5.5-4.4-10.5c-0.3-0.6-0.5-1.2-0.8-1.9
				c-0.4-1.1-0.9-2.2-1.4-3.3c-0.7-1.6-1.4-3.2-2.1-4.9c-5.2-12.2-10.6-25.1-10.6-25.1C393.7,192.2,394.8,206,396.2,218.3z"/>
			<path class="st24" d="M396.2,218.3c0.4,3.9,0.9,7.6,1.3,10.7c5.4-1.8,8.9-5.3,10.9-7.8c-0.7-1.6-1.4-3.2-2.1-4.9L396.2,218.3z"/>
			<g>
				<path class="st24" d="M407.5,241.8C407.6,241.8,407.6,241.8,407.5,241.8c0.4,0,0.6-0.2,0.6-0.5c0.9-6.9,1.8-11.9,2.4-15
					c-0.3-0.6-0.5-1.2-0.8-1.9c-0.6,2.7-1.7,8.4-2.8,16.7C407,241.5,407.2,241.8,407.5,241.8z"/>
			</g>
			<path class="st25" d="M412.2,215.7c0,0-1.2,1.5-3.2,3.1c-2.5,2-7.1,4.4-11.7,4.6c-1-16.4-1.9-32.1-3.2-36.1
				C396.2,189.9,407.4,204.1,412.2,215.7z"/>
			<path class="st22" d="M408.6,242.1c0,0,0.5-16.4,3.9-20c3.4-3.6,6.5-5,9.8-5c3.3,0,6.4,0.3,6.2,1.7c0,0,7.5-1.4,10.9,0.5
				c3.4,1.8-9.9,4-13.8,4.2c-4,0.2-6,2.5-6.1,4.9c-0.1,2.4-1.9,18.1-1.9,18.1L408.6,242.1z"/>
		</g>
		<g>
			<g>
				<path class="st25" d="M400,294.1c-22.1,6.2-44.4,6.8-66.8,1.7c-0.2-6.4-0.7-27.7-0.8-49.8c0-1.2,0-2.3,0-3.5v-1.7
					c0-0.6,0-1.2,0-1.8c0-0.6,0-1.2,0-1.8c0-0.6,0-1.2,0-1.8c0-0.6,0-1.1,0-1.7c0-0.6,0-1.2,0-1.7c0-0.6,0-1.2,0-1.8
					c0-0.6,0-1.2,0-1.8c0-0.6,0-1.1,0-1.7c0-1.1,0-2.2,0-3.3v-0.2c0-0.8,0-1.5,0-2.2c0.2-17.2,0.8-31,2.1-32.9
					c3.2-4.6,18.1-11.8,22.7-15.1l0,0.7c0,0,3,3.8,6.3,3.4c3-0.3,5.1-3.8,5.5-4.4c2.4,1.6,7.7,4.1,13,6.7c5.2,2.7,10.3,5.5,12,7.7
					c1.5,1.9,2.7,16.6,3.6,34.5v0.1c0,0.3,0,0.7,0,1v0.1c0,0.2,0,0.5,0,0.8c0,0.5,0.1,1.1,0.1,1.6c0,0.6,0.1,1.1,0.1,1.7
					c0,0.6,0,1.2,0.1,1.8c0,0.6,0,1.2,0.1,1.8c0,0.6,0,1.1,0.1,1.7c0,0.6,0,1.1,0.1,1.7c0,0.6,0,1.2,0.1,1.8c0,0.6,0,1.1,0.1,1.7
					c0,0.6,0,1.2,0.1,1.8c0,0.6,0,1.1,0.1,1.7c0,1.2,0.1,2.3,0.1,3.5C399.5,266.3,399.9,287.6,400,294.1z"/>
			</g>
			<g>
				<path class="st26" d="M354,190c-0.2,0-0.4-0.2-0.4-0.5c0-0.3,0.2-0.5,0.5-0.5c13.1-0.8,17.5-10.7,17.6-10.8
					c0.1-0.3,0.4-0.4,0.7-0.3c0.3,0.1,0.4,0.4,0.3,0.7c0,0.1-1.2,2.7-4,5.4c-2.6,2.5-7.3,5.6-14.4,6C354.1,190,354,190,354,190z"/>
			</g>
			<g>
				<path class="st26" d="M398.1,230.5l-65.7,1.7c0-0.6,0-1.2,0-1.8c0-0.6,0-1.2,0-1.7l65.5-1.7c0,0.6,0,1.2,0.1,1.7
					C398,229.3,398.1,229.9,398.1,230.5z"/>
				<path class="st26" d="M398.4,237.4l-66,1.7c0-0.6,0-1.2,0-1.7c0-0.6,0-1.2,0-1.8l65.8-1.7c0,0.6,0,1.2,0.1,1.8
					C398.3,236.2,398.4,236.8,398.4,237.4z"/>
				<path class="st26" d="M398.7,244.3l-66.2,1.7c0-1.2,0-2.3,0-3.5l66.1-1.7C398.6,242,398.6,243.1,398.7,244.3z"/>
			</g>
			<g>
				<path class="st26" d="M390.7,212.7c2,2.5,4.9,8.3,6.2,11c0.2,0.4,0.3,0.7,0.4,0.9c0.1,0.3,0.2,0.5,0.2,0.5
					c0,0.1,0.1,0.2,0.2,0.2c0-0.5-0.1-1.1-0.1-1.6c0-0.3,0-0.5,0-0.8l0,0c-0.3-0.5-0.6-1.2-0.9-1.9c-1.5-2.9-3.6-6.9-5.2-8.9
					c-0.2-0.2-0.5-0.3-0.7-0.1C390.6,212.1,390.5,212.4,390.7,212.7z"/>
			</g>
			<g>
				<path class="st26" d="M379.5,277.2c0.3,0,0.5-0.2,0.5-0.5c0-0.3-0.2-0.5-0.5-0.5c-14.6-0.6-23.4-7.7-28.3-13.6
					c-5.3-6.4-7.2-12.8-7.2-12.8c-0.1-0.3-0.4-0.4-0.6-0.4c-0.3,0.1-0.4,0.4-0.4,0.6c0.1,0.3,1.9,6.6,7.3,13.2
					C355.4,269.3,364.5,276.6,379.5,277.2C379.5,277.2,379.5,277.2,379.5,277.2z"/>
			</g>
			<g>
				<path class="st26" d="M371.5,268.2c0.2,0,0.4-0.2,0.5-0.4c0.1-0.3-0.1-0.6-0.4-0.6c-12.7-3.1-15.4-13.6-15.4-13.7
					c-0.1-0.3-0.3-0.4-0.6-0.4c-0.3,0.1-0.4,0.3-0.4,0.6c0,0.1,0.7,2.9,3.1,6c2.2,2.9,6.2,6.7,13.1,8.4
					C371.4,268.2,371.4,268.2,371.5,268.2z"/>
			</g>
		</g>
		<g>
			<path class="st26" d="M339.2,210.9c-1.9,2.6-4.7,8.4-6,11.2c-0.2,0.4-0.3,0.7-0.4,0.9c-0.1,0.3-0.2,0.5-0.2,0.5
				c0,0.1-0.1,0.1-0.1,0.2v-0.2c0-0.8,0-1.5,0-2.2c0.2-0.6,0.5-1.2,0.9-1.9c1.4-3,3.5-7,5-9.1c0.2-0.2,0.5-0.3,0.7-0.1
				S339.4,210.6,339.2,210.9z"/>
		</g>
		<g>
			<g>
				<path class="st13" d="M402.8,220.6l44.8-1.1c1.3,0,2.3-1.1,2.3-2.4l0-1.3c0-1.3-1.1-2.3-2.4-2.3l-44.8,1.1
					c-1.3,0-2.3,1.1-2.3,2.4l0,1.3C400.5,219.6,401.5,220.6,402.8,220.6z"/>
			</g>
			<g>
				<path class="st11" d="M449.9,219.4l8.4-35c0.5-2-1-3.8-3.1-3.8l-20.4,0.5c-1.4,0-2.6,1-2.9,2.3l-9.3,36.7L449.9,219.4z"/>
			</g>
			<g>
				<path class="st13" d="M431.9,183.4l-9.2,36.4l-2.3,0.1l9.2-36.4c0.3-1.3,1.5-2.3,2.9-2.3l2.3-0.1
					C433.4,181.1,432.2,182.1,431.9,183.4z"/>
			</g>
			<g class="st9">
				<path class="st11" d="M437.6,201.9c-0.5,2.3,1,4.1,3.3,4.1c2.3-0.1,4.5-2,5-4.3c0.5-2.3-1-4.1-3.3-4.1
					C440.3,197.7,438.1,199.6,437.6,201.9z"/>
			</g>
		</g>
		<g>
			<g>
				<path class="st27" d="M348.2,149.3c0,0-1.4,0.7-1.7-2s0.7-3.1-0.1-4.4s-1.4-2.9-0.1-4.1c1.3-1.2-1.4-4.1,0-5.6
					c1.5-1.5,3.9-1.9,4.8-3.6c0.9-1.7,2.4-4.9,6.9-5c4.6-0.1,6.1,3.6,8.5,2.6c2.4-1,4.1-1.6,7,0.3s0,4.7,2.6,6
					c2.6,1.3,0.7,5.2,3.7,7.5c2.3,1.7,0.1,8.5-4.4,7.6C370.8,147.7,348.2,149.3,348.2,149.3z"/>
			</g>
			<g>
				<path class="st24" d="M349.4,150.4c0,0-2.6-3.3-4.4-0.5s1,10.9,5.6,8.8L349.4,150.4z"/>
				<g>
					<path class="st28" d="M349.5,156.2c-0.2,0-0.3-0.1-0.4-0.3c-0.8-2.5-3.4-3.5-3.4-3.5c-0.2-0.1-0.3-0.3-0.2-0.5
						c0.1-0.2,0.3-0.3,0.5-0.2c0.1,0,3,1.1,3.9,4c0.1,0.2-0.1,0.4-0.3,0.5C349.6,156.2,349.5,156.2,349.5,156.2z"/>
				</g>
				<g>
					<path class="st28" d="M346.8,155c-0.1,0-0.1,0-0.2-0.1c-0.2-0.1-0.2-0.3-0.1-0.5c0,0,0.5-0.7,1.4-1.2c0.2-0.1,0.4,0,0.5,0.2
						c0.1,0.2,0,0.4-0.2,0.5c-0.7,0.4-1.1,0.9-1.1,0.9C347.1,155,347,155,346.8,155z"/>
				</g>
			</g>
			<g>
				<path class="st24" d="M375.2,149.8c0,0,2.4-3.4,4.3-0.7s-0.5,10.9-5.1,9.1L375.2,149.8z"/>
				<g>
					<path class="st28" d="M375.3,155.6c0.2,0,0.3-0.1,0.4-0.3c0.6-2.5,3.2-3.6,3.2-3.6c0.2-0.1,0.3-0.3,0.2-0.5
						c-0.1-0.2-0.3-0.3-0.5-0.2c-0.1,0-3,1.2-3.7,4.2c-0.1,0.2,0.1,0.4,0.3,0.5C375.3,155.6,375.3,155.6,375.3,155.6z"/>
				</g>
				<g>
					<g>
						<path class="st28" d="M377.9,154.2c0.1,0,0.1,0,0.2-0.1c0.2-0.1,0.2-0.4,0.1-0.5c0,0-0.5-0.7-1.5-1.1c-0.2-0.1-0.4,0-0.5,0.2
							c-0.1,0.2,0,0.4,0.2,0.5c0.8,0.3,1.1,0.8,1.1,0.9C377.7,154.2,377.8,154.2,377.9,154.2z"/>
					</g>
				</g>
			</g>
			<path class="st22" d="M368.8,165.2l0.2,8.1c0,0-2.3,4.2-5.6,4.6c-3.3,0.4-6.3-3.4-6.3-3.4L357,166L368.8,165.2z"/>
			<path class="st24" d="M368.8,165.2l0.1,3.6c-2.1,2.5-6,3.2-11.8,2.5L357,166L368.8,165.2z"/>
			<path class="st22" d="M376.8,144.1c-0.1,3.2-0.3,7.1-0.8,10.3c-0.1,0.8-0.3,1.5-0.5,2.2c-1.6,6-5.6,16.4-17.6,12.4
				c-5.3-1.7-7.9-7.6-9.2-13.5c-0.8-4-1.1-8.1-1.1-11.1c0-3,1.5-5.8,4.1-7.3c6.9-4.2,14.4-2.9,19.4-1.1
				C374.7,137.2,376.9,140.5,376.8,144.1z"/>
			<g>
				<path class="st12" d="M357.6,151.3c0,0.9-0.4,1.6-1,1.6s-1-0.7-1-1.5s0.4-1.6,1-1.6C357.1,149.7,357.5,150.4,357.6,151.3z"/>
			</g>
			<g>
				<path class="st12" d="M369.5,151c0,0.9-0.4,1.6-1,1.6s-1-0.7-1-1.5s0.4-1.6,1-1.6C369,149.4,369.5,150.1,369.5,151z"/>
			</g>
			<g>
				<path class="st27" d="M371.9,145.7c0,0-4.2-1.5-7.3-0.1l0.4,1.8c0,0,4.6-0.5,7,0.4C372.1,147.1,372.2,146.4,371.9,145.7z"/>
			</g>
			<g>
				<path class="st27" d="M352.3,146.2c0,0,4.1-1.7,7.3-0.4l-0.3,1.8c0,0-4.7-0.3-7,0.7C352.1,147.6,352.1,146.9,352.3,146.2z"/>
			</g>
			<g>
				<path class="st24" d="M362.9,157.5c-0.6,0.1-1.3-0.1-1.4-0.1c-0.2-0.1-0.3-0.3-0.3-0.5c0.1-0.2,0.3-0.3,0.5-0.3
					c0.4,0.1,1.2,0.2,1.5-0.1c0.1-0.1,0.1-0.1,0.1-0.4c0-1.4-1-5.8-1-5.8c0-0.2,0.1-0.4,0.3-0.5c0.2,0,0.4,0.1,0.5,0.3
					c0,0.2,1,4.5,1.1,5.9c0,0.5-0.2,0.8-0.4,1C363.5,157.4,363.2,157.5,362.9,157.5z"/>
			</g>
			<path class="st15" d="M357.4,159.8c0.4,1.6,1.5,4.5,5,4.4c3.5-0.1,4.5-2.8,4.7-4.6L357.4,159.8z"/>
			<g>
				<path class="st24" d="M362.4,166.5c1,0,1.8-0.6,1.9-0.6c0.2-0.1,0.2-0.4,0.1-0.5s-0.4-0.2-0.5-0.1c0,0-0.7,0.4-1.5,0.5
					c-0.7,0-1.4-0.4-1.4-0.4c-0.2-0.1-0.4,0-0.5,0.1s0,0.4,0.1,0.5C360.6,166.1,361.5,166.6,362.4,166.5z"/>
			</g>
			<g>
				<path class="st27" d="M376.8,143c-0.1,3.2-0.3,7.2-0.8,10.4l-1.7-0.1c0,0,0.4-2.7,0.5-4.5s0.4-5.1-1.1-5.4
					c-1.5-0.4-0.7-4.1-2.8-5.7c-2.1-1.6-6.7-2.9-9.7-0.9c-3,2-6.5,1-7.9,1.4c-1.4,0.4-3.2,2.4-2.7,4.2c0.6,1.8-1,3-1.3,4.9
					c-0.3,1.9,1,7,1,7l-1.6,0.4c-0.8-4.1-1.1-8.3-1.1-11.2c0-3,1.5-5.9,4.1-7.4c7-4.2,14.5-2.9,19.4-1.1
					C374.6,135.9,376.9,139.3,376.8,143z"/>
			</g>
		</g>
		<g>
			<path class="st22" d="M335.5,285.4l-4.1,5.6c0,0-2.4-1.5-5.6-4.1c0,0,0,0,0,0c-4.9-3.9-10.9-11.2-14.6-18.7
				c-5.8-11.7-3.2-20.1-3.2-20.1c0.6-5.6,3.7-13.5,6.8-22c1.1-3.1,2.1-5.8,2.8-7.7l9.2,2.1l3.9,2.4l-1.5,4
				c-2.6,8.6-5.5,17.1-9.5,25.1c0.9,7.9,4.2,17.4,8.1,23.3C331.7,281.4,335.5,285.4,335.5,285.4z"/>
			<path class="st24" d="M335.5,285.4l-4.1,5.6c0,0-2.4-1.5-5.6-4.1c0,0,0,0,0,0c-0.7-4.2-0.3-10.2,1.9-11.6
				C331.7,281.4,335.5,285.4,335.5,285.4z"/>
			<path class="st22" d="M333.3,279c0.8,0.1,5.2,0.3,4.8-1.2c-0.5-1.7-4.9-3.6-4.9-3.6s0-0.1,0-0.2l0-0.4L333,270
				c-0.8,0-1.6,0.2-2,0.3c-1.9,0.6-1.6,4.9-1.6,4.9s-2.4,0.9-2.3,2.6c0.1,1.8,2,2,2,2s-2.6,1.3-2,2.8s2.6,1.9,2.6,1.9
				s-2.3,1.5-1.5,2.5c0.8,1.1,2.6,1.6,2.6,1.6s-1.6,2.1,0,3.3c1.6,1.2,4,0.9,5.5,0.4c1.5-0.5,1.3-2.5-1.7-3.9c0,0,2.6,0.3,3.9-1.9
				c1.1-1.8-1.7-2.6-4.1-2.9c1.9,0.1,5.1,0.1,5.7-1.7C340.8,279.6,334.4,279,333.3,279z"/>
			<path class="st24" d="M330.6,223l-1.5,4c-3,0.2-8.5,0.3-14.4-0.9c1.1-3.1,2.1-5.8,2.8-7.7l9.2,2.1L330.6,223z"/>
			<path class="st25" d="M334.6,188.3c0,0-13.9,13.5-22,33.1c6.4,2.1,12.5,3.5,18.1,4.2c0.7-1.8,4.2-9.3,7.3-14.6L334.6,188.3z"/>
		</g>
	</g>
	<g>
		<path class="st29" d="M222.5,82.3L222.5,82.3c0.2-0.6,0.5-1.1,0.6-1.6c2.8-7.6,3.1-23.3-14.3-27c0,0-14.3-3.3-20.7,9.5
			c0,0-2.9,6-4.9,10.3c0,0-1.7,9.1-10.3,9.9s-13.4,4.1-12.6,10.5s-0.5,5.4-6.4,10.7s-10.1,15.4-5,22.1c5.1,6.6,24.3-9.1,36.6-2
			c12.3,7,32.9,5,35.4-5c2.4-10-7.2-16.5-6.7-21.6C214.8,93.1,220.9,87.2,222.5,82.3z"/>
		<g>
			<g>
				<path class="st5" d="M227.2,146.2l-12.3,0l-5.9-11.5l-0.7-1.3l-2.5-4.9c0,0,0.5-20.9,5.9-23.8L227.2,146.2z"/>
				<g>
					<path class="st13" d="M209,134.7l-0.7-1.3c1.2-2.4,3.2-7.9,1.6-15c-0.1-0.3,0.1-0.7,0.4-0.7s0.6,0.1,0.7,0.4
						C213,126.6,210.1,132.7,209,134.7z"/>
				</g>
			</g>
			<path class="st22" d="M230.2,144.8c0,0,1.1,4.6,2.9,5.8c1.8,1.3,1.3-5.1,1.3-5.1s0.6,7.7,2.5,7.9s1.5-7.3,1.5-7.3
				s1.2,5.1,2.6,5.4c1.4,0.3,1.4-5.2,1.4-5.2s1.4,4,2.4,4.3c1,0.3,1.6-4.3,1-6.6c-0.6-2.4-3.5-0.9-3.5-0.9s-2.8-0.8-3.7,0.2
				c0,0-2.5-1.1-3.9-0.4C234.5,142.9,230.5,141.7,230.2,144.8z"/>
		</g>
		<g>
			<g>
				<path class="st5" d="M209.5,114.7c0.5,4,1.8,8.1,0,14.5c-0.5,2-1.4,3.6-3,6.4v0c0,0,0,0,0,0c-0.1,0.2-0.2,0.3-0.3,0.5
					c0,0.3-0.1,0.6-0.1,0.9c-1,7.1-0.8,3.4-0.6,9.2h-37l0.3-14.6l0.1-3.1l0.5-28.7l11.7-1h0l2-0.2l0.1,0l3.1-0.3
					c0.3,0,0.6-0.1,0.8-0.1c4.2-0.3,8.5,0.4,12.4,1.9l0.1,0.1l1.8,0.7v0l0.1,0l1.7,0.7l8.2,3.2C211.2,106.6,209.9,112.9,209.5,114.7
					z"/>
			</g>
			<g>
				<path class="st13" d="M173.6,121l-4.7,10.6l0.1-3.1l3.5-8c0.1-0.3,0.5-0.4,0.8-0.3C173.5,120.3,173.7,120.7,173.6,121z"/>
			</g>
			<g>
				<g>
					<g>
						<path class="st22" d="M181.2,98.7c3.8,7.7,13.1,16.3,17.9,13.6c2.9-1.6,4.1-7,4.3-10.8l-1.7-0.7l-0.1,0v0l-1.7-0.7l-0.1-0.1
							c-4-1.5-8.2-2.2-12.4-1.9c-0.1,0-0.3,0-0.4,0.1c-0.1,0-0.3,0-0.4,0l-3.1,0.2l-0.1,0L181.2,98.7z"/>
					</g>
				</g>
			</g>
			<g>
				<g>
					<path class="st13" d="M206.3,136.2c0,0.3-0.1,0.6-0.1,0.8c-2,0.4-8.4,1.3-19.2-1.3c-1.4-0.3-2.9-0.7-4.4-1.2
						c-0.3-0.1-0.5-0.4-0.4-0.7c0.1-0.3,0.4-0.5,0.7-0.4c15.6,4.6,23.5,2.3,23.6,2.3c0,0,0,0,0,0C206.5,135.8,206.4,136,206.3,136.2
						z"/>
				</g>
			</g>
		</g>
		<g>
			<g>
				<g>
					<path class="st24" d="M216.5,81.2c0,0,3.4-2.2,4.3,1c0.9,3.1-4.2,9.5-7.9,6.2L216.5,81.2z"/>
					<path class="st15" d="M215.1,88.6c-0.2,0.4,0.1,0.9,0.5,1.1c0.4,0.2,0.9-0.1,1.1-0.5c0.2-0.4-0.1-0.9-0.5-1.1
						C215.7,87.9,215.2,88.1,215.1,88.6z"/>
					<g>
						<path class="st28" d="M214.7,86.5c0.2,0.1,0.3,0,0.4-0.1c1.5-2,4.3-2.1,4.3-2.1c0.2,0,0.4-0.2,0.4-0.4c0-0.2-0.2-0.4-0.4-0.4
							c-0.1,0-3.2,0-4.9,2.4C214.4,86.1,214.4,86.3,214.7,86.5C214.6,86.4,214.7,86.4,214.7,86.5z"/>
					</g>
					<g>
						<g>
							<path class="st28" d="M217.6,86.2c0.1,0,0.1,0,0.2,0c0.2,0,0.3-0.2,0.3-0.4c0,0-0.2-0.8-1-1.5c-0.2-0.1-0.4-0.1-0.5,0
								c-0.1,0.1-0.1,0.4,0,0.5c0.6,0.6,0.8,1.2,0.8,1.2C217.4,86.1,217.5,86.2,217.6,86.2z"/>
						</g>
					</g>
				</g>
				<path class="st22" d="M192.8,90l-3.2,9c0,0,3,4.7,6.2,6.2c3.2,1.4,5.7-2,5.7-2l3-8.4L192.8,90z"/>
				<path class="st24" d="M192.5,90.9l-1.3,3.6c1.3,3.2,4.9,5.5,10.9,6.7l1.9-5.5L192.5,90.9z"/>
				<path class="st22" d="M216.7,85.1c-0.4,0.8-0.9,1.7-1.3,2.5c-3.1,5.5-9.1,10.5-14.1,9.9c-10.9-1.3-12.3-10.7-11.8-17.1
					c0.1-0.7,0.7-1.3,0.8-2.2c0.3-1.9,0.3-4.3,0.9-6.4c0.4-1.5,0.8-2.9,1.2-4.2c1.1-3.6,4.3-6.1,8-6.3c5.3-0.2,12.8,0.9,18.1,7.2
					c1.9,2.3,2.5,5.5,1.5,8.5C219.3,79.3,218.2,82.2,216.7,85.1z"/>
				<g>
					<g>
						<g>
							<path class="st24" d="M202.8,85.3c-0.2-0.1-0.3-0.3-0.3-0.5c0-0.2,0.3-0.4,0.5-0.3l1.4,0.3l-0.1-5.6c0-0.2,0.2-0.4,0.4-0.4
								c0.2,0,0.4,0.2,0.4,0.4l0.1,6.6L202.8,85.3C202.9,85.3,202.8,85.3,202.8,85.3z"/>
						</g>
					</g>
				</g>
				<path class="st29" d="M216.4,73.9c3.3,3.2,0.4,7.4,0.9,10.3c0,0.2,0.1,0.2,0.2,0.2c1.5-3,2.6-5.9,3.4-8.2c1-3,0.4-6.3-1.7-8.7
					c-5.6-6.5-13.6-7.7-19.1-7.5c-3.9,0.1-7.2,2.6-8.3,6.3c-0.4,1.3-0.8,2.8-1.2,4.2c0.5,0.6,2,1.4,1.7,2.4
					c-0.8,2.8-1.4,4.8-0.7,4.8c1.1,0.1,2.9-3.1,2.5-5.7c0,0,1.4-1.1,5.6-1.2c5.4-0.1,10.8-1.2,10.8-1.2s2.2-0.4,3.3-1.4
					C213.8,68.3,213.9,71.5,216.4,73.9z"/>
				<path class="st17" d="M210,80.7c-0.3,0.9-0.1,1.7,0.4,1.9s1.2-0.3,1.6-1.2s0.1-1.7-0.4-1.9C211,79.3,210.3,79.8,210,80.7z"/>
				<path class="st17" d="M198.7,76.6c-0.3,0.9-0.1,1.7,0.4,1.9s1.2-0.3,1.6-1.2c0.3-0.9,0.1-1.7-0.4-1.9S199,75.8,198.7,76.6z"/>
				<path class="st17" d="M214.9,77.2c-0.7-0.4-2.3-1.3-4-1.8c-0.5-0.1-0.9,0.1-1,0.4l0,0c-0.1,0.3,0.2,0.6,0.6,0.7
					c1.2,0.3,4.3,1.4,5.5,2.4c0.1-0.2,0.1-0.5-0.1-0.7C215.7,77.8,215.3,77.5,214.9,77.2z"/>
				<path class="st17" d="M198.8,71.7c0.9,0.1,2.6,0.4,4.3,1.1c0.4,0.2,0.7,0.6,0.5,1l0,0c-0.1,0.3-0.5,0.4-0.9,0.2
					c-1.1-0.5-4.2-1.5-5.8-1.6c0-0.2,0.2-0.4,0.5-0.5C197.8,71.7,198.3,71.6,198.8,71.7z"/>
				<path class="st15" d="M206.3,89.1c-0.8,1.3-2.6,3.4-5.9,2.3c-3.3-1.2-3.3-3.8-3.1-5.5L206.3,89.1z"/>
				<g>
					<path class="st24" d="M199.6,93.8c0.9,0.3,1.9,0.1,2,0.1c0.2,0,0.4-0.3,0.3-0.5s-0.3-0.4-0.5-0.3l0,0c0,0-0.8,0.2-1.5-0.1
						c-0.8-0.3-1.3-0.9-1.3-0.9c-0.1-0.2-0.4-0.2-0.6-0.1c-0.2,0.1-0.2,0.4-0.1,0.6C198,92.7,198.6,93.5,199.6,93.8z"/>
				</g>
			</g>
			<g>
				<path class="st22" d="M192.3,72.5c0,0-1.6-4.3-4-2.5c-2.5,1.8-2.7,9.8,1.9,9.4L192.3,72.5z"/>
				<path class="st15" d="M187.5,78.7c-0.2,0.4,0.1,0.9,0.5,1.1c0.4,0.2,0.9-0.1,1.1-0.5s-0.1-0.9-0.5-1.1
					C188.2,78.1,187.7,78.3,187.5,78.7z"/>
				<g>
					<path class="st24" d="M190,77c-0.1-0.1-0.2-0.2-0.2-0.4c0.2-2.4-1.8-4.1-1.8-4.1c-0.1-0.1-0.2-0.4,0-0.5c0.1-0.2,0.4-0.2,0.5,0
						c0.1,0.1,2.3,1.9,2.1,4.7C190.5,76.8,190.3,77,190,77C190.1,77,190,77,190,77z"/>
				</g>
				<g>
					<g>
						<g>
							<path class="st24" d="M188.1,75c-0.1,0-0.1-0.1-0.2-0.1c-0.1-0.2-0.1-0.4,0.1-0.5c0,0,0.6-0.5,1.6-0.6c0.2,0,0.4,0.1,0.4,0.3
								s-0.1,0.4-0.3,0.4c-0.8,0.1-1.2,0.4-1.2,0.4C188.3,75.1,188.2,75.1,188.1,75z"/>
						</g>
					</g>
				</g>
			</g>
			<g>
				<g>
					<path class="st15" d="M204.4,77.3c0.1-0.2,0.1-0.5,0.1-0.7c-0.1-0.6-0.5-1.2-1.1-1.5l-5.7-2.2c-0.4-0.2-0.9-0.1-1.3,0
						c-0.2,0.1-0.4,0.2-0.6,0.4c-0.1,0.2-0.2,0.3-0.3,0.5l-0.3,0.7c-0.5,1.2-0.4,2.6,0.1,3.7c0.5,1.1,1.3,1.9,2.4,2.3l0.1,0.1
						c1.2,0.5,2.5,0.4,3.7-0.1c1.2-0.5,2.1-1.5,2.6-2.7L204.4,77.3C204.4,77.3,204.4,77.3,204.4,77.3z M203.5,77.7
						c-0.4,1.1-1.2,1.9-2.2,2.3c-1,0.4-2.1,0.5-3.2,0.1l-0.1-0.1c-0.9-0.4-1.5-1-2-2c-0.4-1-0.5-2.1-0.1-3.2l0.3-0.7
						c0.2-0.5,0.8-0.8,1.3-0.6l5.7,2.2c0.5,0.2,0.8,0.8,0.6,1.3L203.5,77.7z"/>
				</g>
				<g>
					<path class="st15" d="M216.5,81.5c0-0.2,0-0.5-0.1-0.7c-0.2-0.5-0.5-0.9-1-1.1l-5.7-2.2c-0.7-0.3-1.4-0.1-1.8,0.4
						c-0.2,0.2-0.3,0.3-0.4,0.6c0,0,0,0,0,0l-0.3,0.7c-0.5,1.2-0.4,2.6,0.1,3.7c0.5,1.1,1.3,1.9,2.4,2.3l0.2,0.1
						c1.2,0.5,2.5,0.4,3.7-0.1c1.2-0.5,2.1-1.5,2.6-2.7l0.2-0.6C216.4,81.8,216.4,81.6,216.5,81.5z M215.5,82.3
						c-0.4,1.1-1.2,1.9-2.2,2.3c-1,0.5-2.1,0.5-3.2,0.1l-0.1-0.1c-0.9-0.4-1.5-1-2-2c-0.4-1-0.5-2.1-0.1-3.2l0.3-0.7
						c0.2-0.5,0.8-0.8,1.3-0.6l5.7,2.2c0.5,0.2,0.8,0.8,0.6,1.3L215.5,82.3z"/>
				</g>
				<g>
					<path class="st15" d="M196.4,73c-0.5-0.5-1.7-1.7-3.9-2.3v0.8c1.8,0.6,2.8,1.5,3.3,2c0.1,0.1,0.2,0.2,0.2,0.2l0.6-0.4
						C196.6,73.2,196.5,73.1,196.4,73z"/>
				</g>
				<g>
					<path class="st15" d="M204.1,77.3l0-0.7c0,0,1.1,0,2.1,0.4c1.1,0.4,1.7,1,1.7,1.1l-0.5,0.5c0,0-0.5-0.5-1.4-0.9
						C205.1,77.3,204.1,77.3,204.1,77.3z"/>
				</g>
				<g>
					<path class="st15" d="M218.7,80.9c-1.3-0.3-2.5-0.2-2.6-0.2l0.1,0.7c0,0,1.3-0.1,2.5,0.2V80.9z"/>
				</g>
			</g>
		</g>
		<path class="st22" d="M198.8,146.3c0,0,0.2,4.6-1.2,5.8c-1.4,1.3-2.8-5.1-2.8-5.1s1.6,7.7-0.2,7.9s-3.5-7.3-3.5-7.3
			s0.2,5.1-1.1,5.4c-1.3,0.3-2.8-5.2-2.8-5.2s-0.2,4-1.2,4.3s-2.8-4.3-2.8-6.6c-0.1-2.4,3.3-0.9,3.3-0.9s2.5-0.8,3.8,0.2
			c0,0,2.2-1.1,3.8-0.4C193.9,144.4,197.6,143.2,198.8,146.3z"/>
		<g>
			<g>
				<g>
					<g>
						<g>
							<g>
								<path class="st5" d="M178.4,146.2l-26.2,0c0,0-0.1-0.2-0.1-0.2c-0.5-7,3.9-18.7,7-29c2-6.8,4.7-15,10.4-17.3
									c1,1.2,2.8,6,2.9,8.4c0.3,5.9-0.4,12.2-1.6,15.5c-1.6,4.7-3.6,10.5-5,15.2c0,0,0,0,0,0c0,0.1-0.1,0.6-0.1,0.6
									c0,0,0.3,0.1,0.8,0.4C168.2,141,172.6,143.5,178.4,146.2z"/>
							</g>
						</g>
					</g>
				</g>
			</g>
			<g>
				<path class="st13" d="M166.5,140.1c-2.8,1.3-6.6,4-6.7,4c-0.1,0.1-0.2,0.1-0.3,0.1c-0.2,0-0.4-0.1-0.5-0.3
					c-0.2-0.3-0.1-0.6,0.1-0.8c0.2-0.1,3.9-2.7,6.7-4.1c0,0.1-0.1,0.6-0.1,0.6C165.8,139.7,166,139.8,166.5,140.1z"/>
			</g>
		</g>
		<path class="st30" d="M186.4,98.3c0,0,2,9.1,9.2,9.6s7.8-6.7,7.8-6.7"/>
	</g>
	<g>
		<g>
			<g>
				<g>
					<path class="st31" d="M439.1,396.4c0,0-0.8,0.8-2.5,0.9c-0.5,0-1.1,0-1.8-0.1c-0.7-0.1-1.5-0.4-2.4-0.8c0,0,0.4-16.4-6.3-27.8
						c-6.6-11.3-15.5-27-8.4-35c7-8,18.4,3.1,22.1,21.9C443.6,374.3,439.1,396.4,439.1,396.4z"/>
				</g>
				<g>
					<path class="st6" d="M436.6,397.3c-0.5,0-1.1,0-1.8-0.1c2.1-29.2-11.1-51.7-11.2-52c-0.3-0.4-0.1-1,0.3-1.2
						c0.4-0.2,1-0.1,1.2,0.3C425.3,344.6,438.8,367.5,436.6,397.3z"/>
				</g>
			</g>
			<g>
				<g>
					<path class="st31" d="M461.9,369.9c-15.6,25.1-14.5,31-14.5,31l-2-0.4l-1.7-0.3l-2.5-0.4c-1.4-11.2,7.2-58.3,22.5-58.3
						C479.2,341.4,467.2,361.3,461.9,369.9z"/>
				</g>
				<g>
					<path class="st6" d="M461.3,355.4c-0.1,0.2-13.2,23.5-15.9,45.1l-1.7-0.3c2.8-21.9,16-45.4,16.1-45.6c0.2-0.4,0.8-0.6,1.2-0.3
						C461.4,354.4,461.6,355,461.3,355.4z"/>
				</g>
			</g>
			<g>
				<g>
					<path class="st31" d="M432.3,398.6l-1.8,0.5l-1.7,0.5l-1,0.3c0.1-0.2-0.7-2.1-11.7-16.8c-4.5-6-16.6-22.3-5.5-25
						C420.8,355.5,432.6,390.2,432.3,398.6z"/>
				</g>
				<g>
					<path class="st6" d="M430.6,399.1l-1.7,0.5c-3.2-14.1-16-31.4-16.1-31.6c-0.3-0.4-0.2-0.9,0.2-1.2c0.4-0.3,0.9-0.2,1.2,0.2
						C414.7,367.7,427.3,384.7,430.6,399.1z"/>
				</g>
			</g>
			<g>
				<path class="st12" d="M454,435.8c0,2.8-34.8,2.8-34.8,0v-41.4c0-0.4,0.3-0.8,0.8-0.8h33.2c0.4,0,0.8,0.3,0.8,0.8L454,435.8
					L454,435.8z"/>
			</g>
		</g>
		<g>
			<g>
				<g>
					<path class="st5" d="M93,436.9H68c-3.4,0-6.4-2.6-7.5-6.4l-10.6-38.8c-0.4-1.6,0.5-3.2,1.9-3.4c19.3-1.8,38.4-1.8,57.4,0
						c1.4,0.1,2.3,1.8,1.9,3.4l-10.6,38.8C99.4,434.3,96.4,436.9,93,436.9z"/>
				</g>
				<g>
					<path class="st12" d="M108.9,391.1c0,1-12.6,1.9-28.2,1.9s-28.2-0.8-28.2-1.9s12.6-1.9,28.2-1.9S108.9,390.1,108.9,391.1z"/>
				</g>
				<path class="st18" d="M112.6,338.7C102.4,336,87,357,82.2,377.6v-29.9c2.4-4.2,6.9-10.5,15.1-17.2
					c12.7-10.4,24.5-23.7,14.3-26.4c-9.5-2.5-23.8,15.9-29.4,35.1v-38.4c1.6-2.5,4.3-5.9,8.6-9.4c8-6.5,15.4-14.9,9-16.6
					c-5.6-1.5-13.7,8.4-17.6,19.5v-12.4c0.7-3.9,1.6-9.3,4.1-15c5.9-13,9.1-26.4,1.3-25.4c-7.8,1-12.8,24.2-8.6,42v6.4
					c-2.9-13-12.8-26.5-19.2-24.8c-6.4,1.7,1,10.1,9,16.6c6.1,5,9,9.6,10.2,12.1v30.3c-4.6-20.6-20.2-41.9-30.4-39.2
					c-10.2,2.7,1.6,16,14.3,26.4c9.6,7.8,14.2,15.2,16.1,19.2v36.3C74.2,346.4,59,325.9,49,328.6c-10.2,2.7-1.4,12.4,12.9,24.2
					c9.7,8,14.9,16.4,17.3,21v17.1c1.1,0.3,2.2,0.3,3.1,0v-6.8c2-4,6.5-11.3,16-19C111,354.7,122.7,341.3,112.6,338.7z"/>
			</g>
		</g>
	</g>
</g>
</svg>
